<?xml version="1.0" encoding="UTF-8"?>
<svg width="228px" height="88px" viewBox="0 0 228 88" version="1.1" xmlns="http://www.w3.org/2000/svg"
    xmlns:xlink="http://www.w3.org/1999/xlink">
    <!-- Generator: Sketch 61.2 (89653) - https://sketch.com -->
    <title>WS-Login</title>
    <desc>Created with Sketch.</desc>
    <defs>
        <polygon id="path-1"
            points="0.00476357143 0.0470853659 13.1789636 0.0470853659 13.1789636 13.5430924 0.00476357143 13.5430924">
        </polygon>
        <polygon id="path-3" points="0.287895652 0.313217391 41.0120116 0.313217391 41.0120116 40 0.287895652 40">
        </polygon>
        <polygon id="path-5" points="0.440288571 0 16.2113171 0 16.2113171 15.6125153 0.440288571 15.6125153"></polygon>
    </defs>
    <g id="WS-Login" stroke="none" stroke-width="1" fill="none" fill-rule="evenodd">
        <path
            d="M87.7800888,52.3157895 L91.7867659,38.0369433 L91.8690949,38.0369433 L95.8620505,52.3157895 L98.8945014,52.3157895 L103.642139,32.4210526 L100.362702,32.4210526 L97.2067572,46.9731781 L97.1930357,47.1098178 L97.1793142,47.01417 L93.1451941,32.4210526 L90.4832237,32.4210526 L86.4902681,46.9731781 L86.4765466,47.041498 L86.4765466,47.01417 L83.2794378,32.4210526 L80,32.4210526 L84.7339165,52.3157895 L87.7800888,52.3157895 Z M111.597123,52.6027328 C113.710234,52.6027328 115.370535,51.9058704 116.578026,50.5121457 C117.794666,49.1093117 118.402985,47.2965587 118.402985,45.0738866 L118.402985,45.0738866 L118.402985,44.7869433 C118.402985,42.5824899 117.794666,40.7788462 116.578026,39.3760121 C115.370535,37.9640688 113.701086,37.2580972 111.56968,37.2580972 C109.474865,37.2580972 107.814564,37.9640688 106.588777,39.3760121 C105.381285,40.7879555 104.777539,42.5915992 104.777539,44.7869433 L104.777539,44.7869433 L104.777539,45.0738866 C104.777539,47.2874494 105.381285,49.0956478 106.588777,50.4984818 C107.805416,51.9013158 109.474865,52.6027328 111.597123,52.6027328 Z M111.597123,49.9519231 C110.398779,49.9519231 109.520603,49.5010121 108.962596,48.5991903 C108.39544,47.6882591 108.111863,46.5131579 108.111863,45.0738866 L108.111863,45.0738866 L108.111863,44.7869433 C108.111863,43.3841093 108.39544,42.2226721 108.962596,41.3026316 C109.538898,40.3825911 110.407927,39.9225709 111.56968,39.9225709 C112.749729,39.9225709 113.627905,40.3825911 114.204207,41.3026316 C114.789658,42.2135628 115.082383,43.375 115.082383,44.7869433 L115.082383,44.7869433 L115.082383,45.0738866 C115.082383,46.5131579 114.789658,47.6882591 114.204207,48.5991903 C113.627905,49.5010121 112.758876,49.9519231 111.597123,49.9519231 Z M124.423238,52.3157895 L124.423238,42.0404858 C124.661077,41.5394737 124.997254,41.1523279 125.431768,40.8790486 C125.866282,40.6057692 126.408281,40.4691296 127.057765,40.4691296 L127.057765,40.4691296 L128.484801,40.5237854 L128.882725,37.4220648 C128.736362,37.3765182 128.576278,37.3378036 128.402472,37.3059211 C128.228667,37.2740385 128.041139,37.2580972 127.839891,37.2580972 C127.071487,37.2580972 126.392273,37.472166 125.802249,37.9003036 C125.212224,38.3284413 124.729685,38.9205466 124.354631,39.6766194 L124.354631,39.6766194 L124.135087,37.5313765 L121.088914,37.5313765 L121.088914,52.3157895 L124.423238,52.3157895 Z M133.928751,52.3157895 L133.928751,45.8527328 L135.424394,45.8527328 L139.842716,52.3157895 L143.712178,52.3157895 L138.086364,44.2540486 L142.984939,37.5313765 L139.060591,37.5313765 L135.314622,43.1882591 L133.928751,43.1882591 L133.928751,31 L130.608149,31 L130.608149,52.3157895 L133.928751,52.3157895 Z M152.421844,52.6027328 C154.589841,52.6027328 156.339332,52.1131073 157.670317,51.1338563 C159.001302,50.1546053 159.666795,48.8360324 159.666795,47.1781377 C159.666795,45.611336 159.108787,44.3223684 157.992772,43.3112348 C156.876757,42.3001012 155.243899,41.5075911 153.094198,40.9337045 C151.456766,40.4873482 150.283578,40.013664 149.574634,39.5126518 C148.86569,39.0116397 148.511218,38.3830972 148.511218,37.6270243 C148.511218,36.7889676 148.838247,36.1057692 149.492305,35.5774291 C150.146363,35.0490891 151.081711,34.784919 152.298351,34.784919 C153.588171,34.784919 154.580693,35.1014676 155.275916,35.7345648 C155.971138,36.3676619 156.318749,37.194332 156.318749,38.2145749 L156.318749,38.2145749 L159.515858,38.2145749 L159.543301,38.1325911 C159.589039,36.4838057 158.946416,35.0718623 157.615431,33.8967611 C156.284446,32.7216599 154.521233,32.1341093 152.325794,32.1341093 C150.221831,32.1341093 148.504357,32.6533401 147.173372,33.6918016 C145.842386,34.7302632 145.176894,36.0511134 145.176894,37.6543522 C145.176894,39.2120445 145.778353,40.4714069 146.981271,41.4324393 C148.184189,42.3934717 149.901663,43.1654858 152.133693,43.7484818 C153.697943,44.1675101 154.788802,44.6411943 155.40627,45.1695344 C156.023737,45.6978745 156.332471,46.3765182 156.332471,47.2054656 C156.332471,48.0526316 155.989433,48.7244433 155.303359,49.2209008 C154.617284,49.7173583 153.656779,49.965587 152.421844,49.965587 C151.077138,49.965587 149.983992,49.6672571 149.142406,49.0705972 C148.300821,48.4739372 147.880029,47.5698381 147.880029,46.3582996 L147.880029,46.3582996 L144.669198,46.3582996 L144.641755,46.4402834 C144.596017,48.3532389 145.359847,49.8585526 146.933245,50.9562247 C148.506644,52.0538968 150.336177,52.6027328 152.421844,52.6027328 Z M165.865427,58 L165.865427,50.826417 C166.331958,51.409413 166.889965,51.8512146 167.539449,52.1518219 C168.188933,52.4524291 168.934468,52.6027328 169.776053,52.6027328 C171.587291,52.6027328 173.000605,51.9423077 174.015996,50.6214575 C175.031387,49.3006073 175.539082,47.5652834 175.539082,45.4154858 L175.539082,45.4154858 L175.539082,45.1285425 C175.539082,42.7692308 175.0291,40.8676619 174.009135,39.423836 C172.989171,37.9800101 171.564422,37.2580972 169.734889,37.2580972 C168.847565,37.2580972 168.067727,37.4402834 167.395374,37.8046559 C166.72302,38.1690283 166.149004,38.6973684 165.673326,39.3896761 L165.673326,39.3896761 L165.34401,37.5313765 L162.531103,37.5313765 L162.531103,58 L165.865427,58 Z M168.82927,49.9519231 C168.115752,49.9519231 167.51658,49.8130061 167.031754,49.5351721 C166.546928,49.2573381 166.158152,48.8588057 165.865427,48.3395749 L165.865427,48.3395749 L165.865427,41.6578947 C166.158152,41.1295547 166.546928,40.7173583 167.031754,40.4213057 C167.51658,40.125253 168.106605,39.9772267 168.801827,39.9772267 C169.936137,39.9772267 170.789157,40.4577429 171.360886,41.4187753 C171.932615,42.3798077 172.21848,43.6163968 172.21848,45.1285425 L172.21848,45.1285425 L172.21848,45.4154858 C172.21848,46.7727733 171.937189,47.868168 171.374608,48.70167 C170.812026,49.5351721 169.96358,49.9519231 168.82927,49.9519231 Z M182.396346,52.6027328 C183.32026,52.6027328 184.154984,52.368168 184.900519,51.8990385 C185.646054,51.4299089 186.247513,50.8491903 186.704896,50.1568826 C186.732339,50.5121457 186.784938,50.8674089 186.862693,51.2226721 C186.940448,51.5779352 187.038786,51.9423077 187.157705,52.3157895 L187.157705,52.3157895 L190.533194,52.3157895 C190.35024,51.7783401 190.217599,51.229504 190.13527,50.6692814 C190.052941,50.1090587 190.011777,49.5237854 190.011777,48.9134615 L190.011777,48.9134615 L190.011777,42.3410931 C190.011777,40.701417 189.481212,39.444332 188.420083,38.5698381 C187.358954,37.6953441 185.963935,37.2580972 184.235027,37.2580972 C182.451232,37.2580972 181.003614,37.7090081 179.892173,38.61083 C178.780731,39.5126518 178.257028,40.5465587 178.321061,41.7125506 L178.321061,41.7125506 L178.334783,41.7945344 L181.545613,41.7945344 C181.545613,41.2206478 181.769731,40.7515182 182.217966,40.3871457 C182.666202,40.0227733 183.269948,39.840587 184.029204,39.840587 C184.879937,39.840587 185.533995,40.0592105 185.991378,40.4964575 C186.448761,40.9337045 186.677453,41.5394737 186.677453,42.3137652 L186.677453,42.3137652 L186.677453,43.6118421 L184.08409,43.6118421 C182.025866,43.6118421 180.429598,44.0103745 179.295288,44.8074393 C178.160977,45.604504 177.593822,46.7181174 177.593822,48.1482794 C177.593822,49.5328947 178.007754,50.6214575 178.835617,51.4139676 C179.663481,52.2064777 180.850391,52.6027328 182.396346,52.6027328 Z M183.068699,49.9382591 C182.382624,49.9382591 181.854347,49.7720142 181.483866,49.4395243 C181.113386,49.1070344 180.928146,48.6584008 180.928146,48.0936235 C180.928146,47.4468623 181.202576,46.8843623 181.751436,46.4061235 C182.300295,45.9278846 183.059552,45.6887652 184.029204,45.6887652 L184.029204,45.6887652 L186.677453,45.6887652 L186.677453,47.875 C186.457909,48.4124494 186.01196,48.8906883 185.339607,49.3097166 C184.667254,49.7287449 183.910284,49.9382591 183.068699,49.9382591 Z M199.421239,52.6027328 C201.076966,52.6027328 202.492568,52.1017206 203.668042,51.0996964 C204.843517,50.0976721 205.408386,48.9043522 205.362647,47.5197368 L205.362647,47.5197368 L205.335204,47.437753 L202.316475,47.437753 C202.316475,48.1573887 202.037471,48.7563259 201.479464,49.2345648 C200.921456,49.7128036 200.235381,49.9519231 199.421239,49.9519231 C198.168009,49.9519231 197.280686,49.5032895 196.759269,48.6060223 C196.237852,47.7087551 195.977143,46.5632591 195.977143,45.1695344 L195.977143,45.1695344 L195.977143,44.6912955 C195.977143,43.3248988 196.237852,42.1885121 196.759269,41.2821356 C197.280686,40.3757591 198.168009,39.9225709 199.421239,39.9225709 C200.28112,39.9225709 200.978629,40.2049595 201.513767,40.7697368 C202.048906,41.3345142 202.316475,42.0222672 202.316475,42.832996 L202.316475,42.832996 L205.348926,42.832996 L205.376369,42.7510121 C205.412959,41.1568826 204.875534,39.8428644 203.764093,38.8089575 C202.652652,37.7750506 201.205034,37.2580972 199.421239,37.2580972 C197.234947,37.2580972 195.558638,37.9617915 194.39231,39.3691802 C193.225983,40.7765688 192.64282,42.5506073 192.64282,44.6912955 L192.64282,44.6912955 L192.64282,45.1695344 C192.64282,47.319332 193.225983,49.0956478 194.39231,50.4984818 C195.558638,51.9013158 197.234947,52.6027328 199.421239,52.6027328 Z M214.182085,52.6027328 C215.398725,52.6027328 216.469001,52.4342105 217.392916,52.097166 C218.31683,51.7601215 219.057791,51.3456478 219.615798,50.8537449 L219.615798,50.8537449 L218.545521,48.6811741 C217.950923,49.0910931 217.333456,49.4053644 216.693119,49.6239879 C216.052783,49.8426113 215.284379,49.9519231 214.387908,49.9519231 C213.262745,49.9519231 212.382282,49.5784413 211.74652,48.8314777 C211.110757,48.0845142 210.765433,47.1234818 210.710547,45.9483806 L210.710547,45.9483806 L210.73799,45.8800607 L220,45.8800607 L220,43.9261134 C220,41.8947368 219.467149,40.2755567 218.401446,39.0685729 C217.335743,37.8615891 215.801222,37.2580099 213.797883,37.2580099 C211.93176,37.2489879 210.378944,37.9526822 209.139435,39.3691802 C207.899927,40.7856781 207.280172,42.5688259 207.280172,44.7186235 L207.280172,44.7186235 L207.280172,45.2651822 C207.280172,47.4149798 207.9045,49.1753543 209.153157,50.5463057 C210.401813,51.9172571 212.078122,52.6027328 214.182085,52.6027328 Z M216.693119,43.4478745 L210.806597,43.4478745 L210.779154,43.3795547 C210.907221,42.3775304 211.236537,41.5508603 211.767102,40.8995445 C212.297666,40.2482287 212.974594,39.9225709 213.797883,39.9225709 C214.767536,39.9225709 215.492488,40.2186235 215.972741,40.8107287 C216.452993,41.402834 216.693119,42.1680162 216.693119,43.1062753 L216.693119,43.1062753 L216.693119,43.4478745 Z"
            id="WorkSpace" fill="#2C3847" fill-rule="nonzero"></path>
        <g id="Group" transform="translate(177.000000, 58.000000)">
            <path
                d="M4.70096247,20.1845703 C5.83182184,20.1845703 6.71951716,19.7612305 7.36404841,18.9145508 C8.00857966,18.0678711 8.33084528,16.9326172 8.33084528,15.5087891 L8.33084528,15.5087891 L8.33084528,15.3242188 C8.33084528,13.8066406 8.00857966,12.5922852 7.36404841,11.6811523 C6.71951716,10.7700195 5.82596247,10.3144531 4.68338434,10.3144531 C4.00369684,10.3144531 3.41775934,10.4594727 2.92557184,10.7495117 C2.43338434,11.0395508 2.02908747,11.4511719 1.71268122,11.984375 L1.71268122,11.984375 L1.71268122,6.2890625 L0.657993719,6.2890625 L0.657993719,20 L1.56326716,20 L1.67752497,18.5673828 C1.98807184,19.0888672 2.39529841,19.4887695 2.89920466,19.7670898 C3.40311091,20.0454102 4.00369684,20.1845703 4.70096247,20.1845703 Z M4.49881403,19.2705078 C3.80740778,19.2705078 3.2287945,19.1079102 2.76297419,18.7827148 C2.29715387,18.4575195 1.94705622,18.0195312 1.71268122,17.46875 L1.71268122,17.46875 L1.71268122,13.1708984 C1.92947809,12.6025391 2.26199762,12.1367188 2.71023981,11.7734375 C3.158482,11.4101562 3.74881403,11.2285156 4.48123591,11.2285156 C5.40115778,11.2285156 6.09549372,11.6079102 6.56424372,12.3666992 C7.03299372,13.1254883 7.26736872,14.1113281 7.26736872,15.3242188 L7.26736872,15.3242188 L7.26736872,15.5087891 C7.26736872,16.6572266 7.03592341,17.5712891 6.57303278,18.2509766 C6.11014216,18.9306641 5.41873591,19.2705078 4.49881403,19.2705078 Z M10.7719727,23.8408203 C11.527832,23.8408203 12.1020508,23.6152344 12.4946289,23.1640625 C12.887207,22.7128906 13.206543,22.1650391 13.4526367,21.5205078 L13.4526367,21.5205078 L17.5834961,10.4902344 L16.4057617,10.4902344 L13.5317383,18.5585938 L13.4790039,18.5585938 L13.1450195,17.4248047 L10.534668,10.4902344 L9.36572266,10.4902344 L13.0395508,19.8769531 L12.5385742,21.1601562 C12.3452148,21.6699219 12.1108398,22.0874023 11.8354492,22.4125977 C11.5600586,22.737793 11.1938477,22.9003906 10.7368164,22.9003906 C10.6665039,22.9003906 10.5537109,22.8930664 10.3984375,22.878418 C10.2431641,22.8637695 10.1303711,22.8505859 10.0600586,22.8388672 L10.0600586,22.8388672 L9.93701172,23.7177734 C10.019043,23.7470703 10.1479492,23.7749023 10.3237305,23.8012695 C10.4995117,23.8276367 10.6489258,23.8408203 10.7719727,23.8408203 Z"
                id="by" fill="#2C3847" fill-rule="nonzero"></path>
            <g id="Icon/co8" transform="translate(20.000000, 0.000000)">
                <g id="Group-10" transform="translate(0.300000, 0.300000)">
                    <g id="Group-3" transform="translate(10.028571, 0.238252)">
                        <mask id="mask-2" fill="white">
                            <use xlink:href="#path-1"></use>
                        </mask>
                        <g id="Clip-2"></g>
                        <path
                            d="M6.59186357,9.61874122 C5.06947071,9.61874122 3.83512071,8.35457049 3.83512071,6.79476073 C3.83512071,5.23552171 5.06947071,3.97135098 6.59186357,3.97135098 C8.11425643,3.97135098 9.34860643,5.23552171 9.34860643,6.79476073 C9.34860643,8.35457049 8.11425643,9.61874122 6.59186357,9.61874122 M6.59186357,0.0469997561 C2.95372071,0.0469997561 0.00476357143,3.06816805 0.00476357143,6.79476073 C0.00476357143,10.5219241 2.95372071,13.5430924 6.59186357,13.5430924 C10.2300064,13.5430924 13.1789636,10.5219241 13.1789636,6.79476073 C13.1789636,3.06816805 10.2300064,0.0469997561 6.59186357,0.0469997561"
                            id="Fill-1" fill="#FBBC05" mask="url(#mask-2)"></path>
                    </g>
                    <path
                        d="M16.620435,19.4287346 C15.0980421,19.4287346 13.8636921,18.1645639 13.8636921,16.6047541 C13.8636921,15.0455151 15.0980421,13.7813444 16.620435,13.7813444 C18.1428279,13.7813444 19.3771779,15.0455151 19.3771779,16.6047541 C19.3771779,18.1645639 18.1428279,19.4287346 16.620435,19.4287346 M16.620435,9.85699317 C12.9822921,9.85699317 10.033335,12.8781615 10.033335,16.6047541 C10.033335,20.3316322 12.9822921,23.3528005 16.620435,23.3528005 C20.2585779,23.3528005 23.207535,20.3316322 23.207535,16.6047541 C23.207535,12.8781615 20.2585779,9.85699317 16.620435,9.85699317"
                        id="Fill-4" fill="#34A853"></path>
                    <path
                        d="M6.58723929,19.4287346 C5.06484643,19.4287346 3.83049643,18.1645639 3.83049643,16.6047541 C3.83049643,15.0455151 5.06484643,13.7813444 6.58723929,13.7813444 C7.69288929,13.7813444 8.64365357,14.4496712 9.08296071,15.4119249 C9.29244643,13.9069054 9.89221071,12.5317273 10.7738893,11.3954005 C9.63564643,10.4342883 8.177325,9.85699317 6.58723929,9.85699317 C2.94909643,9.85699317 0.000139285714,12.8781615 0.000139285714,16.6047541 C0.000139285714,20.3316322 2.94909643,23.3528005 6.58723929,23.3528005 C8.177325,23.3528005 9.63564643,22.7757907 10.7738893,21.8146785 C9.89221071,20.6783517 9.29244643,19.3031737 9.08296071,17.7978688 C8.64365357,18.7604078 7.69288929,19.4287346 6.58723929,19.4287346"
                        id="Fill-6" fill="#4285F4"></path>
                    <path
                        d="M13.8638314,7.03315537 C13.8638314,5.47363098 15.0981814,4.20946024 16.6205743,4.20946024 L16.6205743,0.28539439 C12.9824314,0.28539439 10.0331957,3.30627732 10.0331957,7.03315537 C10.0331957,10.7603188 12.9824314,13.7812017 16.6205743,13.7812017 L16.6205743,9.85713585 C15.0981814,9.85713585 13.8638314,8.59296512 13.8638314,7.03315537"
                        id="Fill-8" fill="#FBBC05"></path>
                </g>
            </g>
        </g>
        <g id="Icon/WS">
            <g id="Group-2" transform="translate(9.000000, 13.000000)">
                <g id="Group-3" transform="translate(9.742680, 14.983051)">
                    <mask id="mask-4" fill="white">
                        <use xlink:href="#path-3"></use>
                    </mask>
                    <g id="Clip-2"></g>
                    <path
                        d="M37.4178087,40.0001739 L3.88209855,40.0001739 C1.8972,40.0001739 0.287895652,38.4427826 0.287895652,36.521913 L0.287895652,3.79147826 C0.287895652,1.8706087 1.8972,0.313217391 3.88209855,0.313217391 L37.4178087,0.313217391 C39.4027072,0.313217391 41.0120116,1.8706087 41.0120116,3.79147826 L41.0120116,36.521913 C41.0120116,38.4427826 39.4027072,40.0001739 37.4178087,40.0001739"
                        id="Fill-1" fill="#FBBC05" mask="url(#mask-4)"></path>
                </g>
                <path
                    d="M61.76006,33.328122 L53.5778314,16.3100203 L40.1424314,29.7736136 L40.1424314,42.3999186 C40.1424314,43.8788339 38.9414029,45.0765966 37.4604886,45.0765966 L22.9896886,45.0765966 L25.4829743,50.2616136 C26.0702029,51.4831729 27.5511171,52.0031729 28.7911171,51.4250034 L60.5794029,36.5873763 C61.8185171,36.0092068 62.3472886,34.5496814 61.76006,33.328122"
                    id="Fill-4" fill="#34A853"></path>
                <g id="Group-8" transform="translate(32.771251, 0.000000)">
                    <mask id="mask-6" fill="white">
                        <use xlink:href="#path-5"></use>
                    </mask>
                    <g id="Clip-7"></g>
                    <path
                        d="M7.37100286,7.52783729 L7.37100286,15.6125153 L16.2113171,6.75400678 L13.6365457,1.40065085 C13.0493171,0.178210169 11.5684029,-0.342671186 10.3284029,0.236379661 L0.440288571,4.85204068 L4.68994571,4.85204068 C6.17086,4.85204068 7.37100286,6.04980339 7.37100286,7.52783729"
                        id="Fill-6" fill="#34A853" mask="url(#mask-6)"></path>
                </g>
                <path
                    d="M2.68105714,45.0766847 C1.20014286,45.0766847 2.77111667e-13,43.878922 2.77111667e-13,42.4000068 L2.77111667e-13,42.4000068 L2.77111667e-13,7.52739661 C2.77111667e-13,6.05024407 1.20014286,4.8516 2.68105714,4.8516 L2.68105714,4.8516 L37.4611971,4.85151186 C38.9421114,4.85151186 40.1422543,6.05015593 40.1422543,7.52818983 L40.1422543,7.52818983 L40.1422543,15.6119864 L32.0060829,23.7645288 L26.47834,18.2252068 C24.5271114,16.2703593 21.3562543,16.2703593 19.4050257,18.2252068 C17.4537971,20.1809356 17.4537971,23.3432407 19.4050257,25.2989695 L19.4050257,25.2989695 L30.0008257,35.9166644 C30.0566257,35.9721898 30.1212829,36.0153763 30.1815114,36.0647322 L30.1815114,36.0647322 L31.4533971,37.3391729 C31.7678257,37.6529356 32.2788829,37.6529356 32.5924257,37.3391729 L32.5924257,37.3391729 L40.1422543,29.7736136 L40.1422543,42.3999186 C40.1422543,43.8788339 38.9421114,45.0765966 37.4611971,45.0765966 L37.4611971,45.0765966 Z"
                    id="Combined-Shape" fill="#4285F4"></path>
                <path
                    d="M48.9825686,6.75418305 L53.5776543,16.3107254 L40.1422543,29.7734373 L40.1426086,29.7730847 L32.59278,37.3386441 C32.2783514,37.6532881 31.7672943,37.6532881 31.4537514,37.3386441 L31.4537514,37.3386441 L30.18098,36.0642034 C30.1207514,36.0148475 30.05698,35.9725424 30.00118,35.9161356 L30.00118,35.9161356 L19.4044943,25.2984407 C17.4532657,23.3427119 17.4532657,20.1812881 19.4044943,18.2255593 C21.3557229,16.2698305 24.5274657,16.2698305 26.4778086,18.2255593 L26.4778086,18.2255593 L32.0064371,23.7648814 L40.1426086,15.612339 L48.9825686,6.75418305 Z"
                    id="Combined-Shape" fill="#FFFFFF"></path>
            </g>
        </g>
    </g>
</svg>